<mxfile host="localhost" modified="2020-05-16T09:44:15.316Z" agent="5.0 (Windows NT 10.0; Win64; x64) AppleWebKit/537.36 (KHTML, like Gecko) Code/1.45.1 Chrome/78.0.3904.130 Electron/7.2.4 Safari/537.36" etag="rjtlxtVVqioXTpGsx3lo" version="13.0.9">
    <diagram id="ggSsysjEvXZ7npFTAwTX" name="Page-1">
        <mxGraphModel dx="1127" dy="563" grid="1" gridSize="10" guides="1" tooltips="1" connect="1" arrows="1" fold="1" page="1" pageScale="1" pageWidth="827" pageHeight="1169" math="0" shadow="0">
            <root>
                <mxCell id="0"/>
                <mxCell id="1" parent="0"/>
                <mxCell id="2" value="&lt;table border=&quot;1&quot; width=&quot;100%&quot; cellpadding=&quot;4&quot; style=&quot;width: 100% ; height: 100% ; border-collapse: collapse ; border: 1px solid rgb(26 , 26 , 26) ; background-color: rgb(126 , 166 , 224)&quot;&gt;&lt;tbody&gt;&lt;tr style=&quot;color: rgb(255 , 255 , 255)&quot;&gt;&lt;th align=&quot;left&quot;&gt;&lt;font color=&quot;#000000&quot;&gt;&lt;span&gt;结构体&lt;/span&gt;&lt;/font&gt;&lt;/th&gt;&lt;th align=&quot;left&quot;&gt;&lt;span style=&quot;color: rgb(0 , 0 , 0)&quot;&gt;DATA_HEADER&lt;/span&gt;&lt;br&gt;&lt;/th&gt;&lt;th align=&quot;left&quot;&gt;&lt;br&gt;&lt;/th&gt;&lt;td&gt;&lt;br&gt;&lt;/td&gt;&lt;td&gt;&lt;br&gt;&lt;/td&gt;&lt;td&gt;&lt;br&gt;&lt;/td&gt;&lt;td&gt;&lt;br&gt;&lt;/td&gt;&lt;/tr&gt;&lt;tr&gt;&lt;td&gt;&lt;span&gt;&lt;font color=&quot;#000000&quot;&gt;长度&lt;/font&gt;&lt;/span&gt;&lt;/td&gt;&lt;td&gt;&lt;span&gt;&lt;font color=&quot;#000000&quot;&gt;7&lt;/font&gt;&lt;/span&gt;&lt;/td&gt;&lt;td&gt;&lt;span&gt;&lt;font color=&quot;#000000&quot;&gt;1&lt;/font&gt;&lt;/span&gt;&lt;/td&gt;&lt;td&gt;&lt;span&gt;&lt;font color=&quot;#000000&quot;&gt;4&lt;/font&gt;&lt;/span&gt;&lt;/td&gt;&lt;td&gt;&lt;span&gt;&lt;font color=&quot;#000000&quot;&gt;4&lt;/font&gt;&lt;/span&gt;&lt;/td&gt;&lt;td&gt;&lt;span&gt;&lt;font color=&quot;#000000&quot;&gt;4&lt;/font&gt;&lt;/span&gt;&lt;/td&gt;&lt;td&gt;&lt;span&gt;&lt;font color=&quot;#000000&quot;&gt;492&lt;/font&gt;&lt;/span&gt;&lt;/td&gt;&lt;/tr&gt;&lt;tr&gt;&lt;td&gt;&lt;span&gt;&lt;font color=&quot;#000000&quot;&gt;字段名&lt;/font&gt;&lt;/span&gt;&lt;/td&gt;&lt;td&gt;&lt;span&gt;&lt;font color=&quot;#000000&quot;&gt;magic&lt;/font&gt;&lt;/span&gt;&lt;/td&gt;&lt;td&gt;&lt;font color=&quot;#000000&quot;&gt;&lt;span&gt;start_safe_flag&lt;/span&gt;&lt;/font&gt;&lt;/td&gt;&lt;td&gt;&lt;span&gt;&lt;font color=&quot;#000000&quot;&gt;reg_select&lt;/font&gt;&lt;/span&gt;&lt;/td&gt;&lt;td&gt;&lt;span&gt;&lt;font color=&quot;#000000&quot;&gt;desc_offset&lt;/font&gt;&lt;/span&gt;&lt;/td&gt;&lt;td&gt;&lt;span&gt;&lt;font color=&quot;#000000&quot;&gt;bitmap_offset&lt;/font&gt;&lt;/span&gt;&lt;/td&gt;&lt;td&gt;&lt;span&gt;&lt;font color=&quot;#000000&quot;&gt;reserve&lt;/font&gt;&lt;/span&gt;&lt;/td&gt;&lt;/tr&gt;&lt;tr&gt;&lt;td&gt;&lt;font color=&quot;#000000&quot;&gt;&lt;span&gt;样例值&lt;/span&gt;&lt;/font&gt;&lt;/td&gt;&lt;td&gt;&lt;font color=&quot;#000000&quot;&gt;HWBTMV2&lt;/font&gt;&lt;br&gt;&lt;/td&gt;&lt;td&gt;&lt;span&gt;&lt;font color=&quot;#000000&quot;&gt;0&lt;/font&gt;&lt;/span&gt;&lt;/td&gt;&lt;td&gt;&lt;span&gt;&lt;font color=&quot;#000000&quot;&gt;0&lt;/font&gt;&lt;/span&gt;&lt;/td&gt;&lt;td&gt;&lt;span&gt;&lt;font color=&quot;#000000&quot;&gt;4096&lt;/font&gt;&lt;/span&gt;&lt;/td&gt;&lt;td&gt;&lt;span&gt;&lt;font color=&quot;#000000&quot;&gt;8192&lt;/font&gt;&lt;/span&gt;&lt;/td&gt;&lt;td&gt;&lt;span&gt;&lt;font color=&quot;#000000&quot;&gt;&lt;br&gt;&lt;/font&gt;&lt;/span&gt;&lt;/td&gt;&lt;/tr&gt;&lt;tr&gt;&lt;td&gt;&lt;span&gt;&lt;font color=&quot;#000000&quot;&gt;描述&lt;/font&gt;&lt;/span&gt;&lt;/td&gt;&lt;td&gt;&lt;font color=&quot;#000000&quot;&gt;&lt;span&gt;魔鬼数字&lt;br&gt;&lt;/span&gt;&lt;/font&gt;&lt;/td&gt;&lt;td&gt;&lt;br&gt;&lt;/td&gt;&lt;td&gt;&lt;span&gt;&lt;font color=&quot;#000000&quot;&gt;&lt;br&gt;&lt;/font&gt;&lt;/span&gt;&lt;/td&gt;&lt;td&gt;&lt;span&gt;&lt;font color=&quot;#000000&quot;&gt;描述信息&lt;br&gt;偏移量&lt;/font&gt;&lt;/span&gt;&lt;/td&gt;&lt;td&gt;&lt;span&gt;&lt;font color=&quot;#000000&quot;&gt;&lt;br&gt;&lt;/font&gt;&lt;/span&gt;&lt;/td&gt;&lt;td&gt;&lt;span&gt;&lt;font color=&quot;#000000&quot;&gt;&lt;br&gt;&lt;/font&gt;&lt;/span&gt;&lt;/td&gt;&lt;/tr&gt;&lt;/tbody&gt;&lt;/table&gt;" style="text;html=1;strokeColor=#c0c0c0;fillColor=#ffffff;overflow=fill;rounded=0;" parent="1" vertex="1">
                    <mxGeometry x="50" y="40" width="560" height="160" as="geometry"/>
                </mxCell>
                <mxCell id="15" value="" style="edgeStyle=orthogonalEdgeStyle;rounded=0;orthogonalLoop=1;jettySize=auto;html=1;" parent="1" source="5" target="14" edge="1">
                    <mxGeometry relative="1" as="geometry"/>
                </mxCell>
                <mxCell id="5" value="&lt;table border=&quot;1&quot; width=&quot;100%&quot; cellpadding=&quot;4&quot; style=&quot;width: 100% ; height: 100% ; border-collapse: collapse ; border: 1px solid rgb(26 , 26 , 26) ; background-color: rgb(248 , 203 , 173)&quot;&gt;&lt;tbody&gt;&lt;tr style=&quot;color: rgb(255 , 255 , 255)&quot;&gt;&lt;th align=&quot;left&quot;&gt;&lt;font color=&quot;#000000&quot;&gt;&lt;span&gt;结构体&lt;/span&gt;&lt;/font&gt;&lt;/th&gt;&lt;th align=&quot;left&quot;&gt;&lt;font color=&quot;#000000&quot;&gt;VOL_BITMAP_DESC&lt;/font&gt;&lt;/th&gt;&lt;th align=&quot;left&quot;&gt;&lt;br&gt;&lt;/th&gt;&lt;/tr&gt;&lt;tr&gt;&lt;td&gt;&lt;span&gt;&lt;font color=&quot;#000000&quot;&gt;长度&lt;/font&gt;&lt;/span&gt;&lt;/td&gt;&lt;td style=&quot;border-collapse: collapse&quot;&gt;&lt;font color=&quot;#000000&quot;&gt;4&lt;/font&gt;&lt;/td&gt;&lt;td&gt;&lt;font color=&quot;#000000&quot;&gt;4&lt;/font&gt;&lt;/td&gt;&lt;/tr&gt;&lt;tr&gt;&lt;td&gt;&lt;span&gt;&lt;font color=&quot;#000000&quot;&gt;字段名&lt;/font&gt;&lt;/span&gt;&lt;/td&gt;&lt;td&gt;&lt;font color=&quot;#000000&quot;&gt;granularity&lt;/font&gt;&lt;br&gt;&lt;/td&gt;&lt;td&gt;&lt;font color=&quot;#000000&quot;&gt;disk_count&lt;/font&gt;&lt;/td&gt;&lt;/tr&gt;&lt;tr&gt;&lt;td&gt;&lt;font color=&quot;#000000&quot;&gt;&lt;span&gt;样例值&lt;/span&gt;&lt;/font&gt;&lt;/td&gt;&lt;td&gt;&lt;font color=&quot;#000000&quot;&gt;3&lt;/font&gt;&lt;br&gt;&lt;/td&gt;&lt;td&gt;&lt;font color=&quot;#000000&quot;&gt;2&lt;/font&gt;&lt;/td&gt;&lt;/tr&gt;&lt;tr&gt;&lt;td&gt;&lt;span&gt;&lt;font color=&quot;#000000&quot;&gt;描述&lt;/font&gt;&lt;/span&gt;&lt;/td&gt;&lt;td&gt;&lt;font color=&quot;#000000&quot;&gt;&lt;span&gt;1&amp;lt;&amp;lt;granularity得到每一位表示的扇区个数。&lt;br&gt;3则表示8个扇区(512字节）4K。&lt;br&gt;&lt;/span&gt;&lt;/font&gt;&lt;/td&gt;&lt;td&gt;&lt;br&gt;&lt;/td&gt;&lt;/tr&gt;&lt;/tbody&gt;&lt;/table&gt;" style="text;html=1;strokeColor=#c0c0c0;fillColor=#ffffff;overflow=fill;rounded=0;" parent="1" vertex="1">
                    <mxGeometry x="50" y="200" width="400" height="162" as="geometry"/>
                </mxCell>
                <mxCell id="14" value="&lt;table border=&quot;1&quot; width=&quot;100%&quot; cellpadding=&quot;4&quot; style=&quot;width: 100% ; height: 100% ; border-collapse: collapse ; border: 1px solid rgb(26 , 26 , 26) ; background-color: rgb(198 , 224 , 180)&quot;&gt;&lt;tbody&gt;&lt;tr style=&quot;color: rgb(255 , 255 , 255)&quot;&gt;&lt;th align=&quot;left&quot;&gt;&lt;font color=&quot;#000000&quot;&gt;&lt;span&gt;结构体&lt;/span&gt;&lt;/font&gt;&lt;/th&gt;&lt;th align=&quot;left&quot;&gt;&lt;font color=&quot;#000000&quot;&gt;VOL_BITMAP_INFO&lt;/font&gt;&lt;/th&gt;&lt;th align=&quot;left&quot;&gt;&lt;font color=&quot;#000000&quot;&gt;&lt;br&gt;&lt;/font&gt;&lt;/th&gt;&lt;td&gt;&lt;font color=&quot;#000000&quot;&gt;&lt;br&gt;&lt;/font&gt;&lt;/td&gt;&lt;td&gt;&lt;font color=&quot;#000000&quot;&gt;&lt;br&gt;&lt;/font&gt;&lt;/td&gt;&lt;td&gt;&lt;font color=&quot;#000000&quot;&gt;&lt;br&gt;&lt;/font&gt;&lt;/td&gt;&lt;/tr&gt;&lt;tr&gt;&lt;td&gt;&lt;span&gt;&lt;font color=&quot;#000000&quot;&gt;长度&lt;/font&gt;&lt;/span&gt;&lt;/td&gt;&lt;td style=&quot;border-collapse: collapse&quot;&gt;&lt;font color=&quot;#000000&quot;&gt;64&lt;/font&gt;&lt;/td&gt;&lt;td&gt;&lt;font color=&quot;#000000&quot;&gt;16&lt;/font&gt;&lt;/td&gt;&lt;td&gt;&lt;font color=&quot;#000000&quot;&gt;4&lt;/font&gt;&lt;/td&gt;&lt;td&gt;&lt;font color=&quot;#000000&quot;&gt;4&lt;/font&gt;&lt;/td&gt;&lt;td&gt;&lt;font color=&quot;#000000&quot;&gt;8&lt;/font&gt;&lt;/td&gt;&lt;/tr&gt;&lt;tr&gt;&lt;td&gt;&lt;span&gt;&lt;font color=&quot;#000000&quot;&gt;字段名&lt;/font&gt;&lt;/span&gt;&lt;/td&gt;&lt;td&gt;&lt;font color=&quot;#000000&quot;&gt;disk_name&lt;/font&gt;&lt;/td&gt;&lt;td&gt;&lt;font color=&quot;#000000&quot;&gt;vol_id&lt;/font&gt;&lt;/td&gt;&lt;td&gt;&lt;font color=&quot;#000000&quot;&gt;logical_offset&lt;br&gt;&lt;/font&gt;&lt;/td&gt;&lt;td&gt;&lt;font color=&quot;#000000&quot;&gt;bitmap_size&lt;/font&gt;&lt;/td&gt;&lt;td&gt;&lt;font color=&quot;#000000&quot;&gt;bitmap_count&lt;/font&gt;&lt;/td&gt;&lt;/tr&gt;&lt;tr&gt;&lt;td&gt;&lt;font color=&quot;#000000&quot;&gt;&lt;span&gt;样例值&lt;/span&gt;&lt;/font&gt;&lt;/td&gt;&lt;td&gt;&lt;font color=&quot;#000000&quot;&gt;/dev/sdb&lt;/font&gt;&lt;/td&gt;&lt;td&gt;&lt;font color=&quot;#000000&quot;&gt;xxx&lt;/font&gt;&lt;/td&gt;&lt;td&gt;&lt;font color=&quot;#000000&quot;&gt;0&lt;/font&gt;&lt;/td&gt;&lt;td&gt;&lt;font color=&quot;#000000&quot;&gt;983040&lt;/font&gt;&lt;/td&gt;&lt;td&gt;&lt;font color=&quot;#000000&quot;&gt;17920&lt;/font&gt;&lt;/td&gt;&lt;/tr&gt;&lt;tr&gt;&lt;td&gt;&lt;span&gt;&lt;font color=&quot;#000000&quot;&gt;描述&lt;/font&gt;&lt;/span&gt;&lt;/td&gt;&lt;td&gt;&lt;font color=&quot;#000000&quot;&gt;&lt;span&gt;磁盘名&lt;br&gt;&lt;/span&gt;&lt;/font&gt;&lt;/td&gt;&lt;td&gt;&lt;font color=&quot;#000000&quot;&gt;&lt;br&gt;&lt;/font&gt;&lt;/td&gt;&lt;td&gt;&lt;font color=&quot;#000000&quot;&gt;逻辑偏移量&lt;br&gt;如果有多个盘时&lt;br&gt;需要累加偏移量&lt;br&gt;&lt;/font&gt;&lt;/td&gt;&lt;td&gt;&lt;font color=&quot;#000000&quot;&gt;盘大小/granularity/8&lt;br&gt;一共需要多少bit来保存，&lt;br&gt;以10GB&lt;br&gt;granularity为11（1M）&lt;br&gt;共需要10*1024/8位。&lt;br&gt;&lt;/font&gt;&lt;/td&gt;&lt;td&gt;&lt;font color=&quot;#000000&quot;&gt;bitmap中设置为1的位数&lt;br&gt;用于校验。&lt;br&gt;&lt;/font&gt;&lt;/td&gt;&lt;/tr&gt;&lt;/tbody&gt;&lt;/table&gt;" style="text;html=1;strokeColor=#c0c0c0;fillColor=#ffffff;overflow=fill;rounded=0;" parent="1" vertex="1">
                    <mxGeometry x="50" y="362" width="660" height="168" as="geometry"/>
                </mxCell>
                <mxCell id="16" value="&lt;table border=&quot;1&quot; width=&quot;100%&quot; cellpadding=&quot;4&quot; style=&quot;width: 100% ; height: 100% ; border-collapse: collapse ; border: 1px solid rgb(26 , 26 , 26) ; background-color: rgb(217 , 217 , 217)&quot;&gt;&lt;tbody&gt;&lt;tr style=&quot;color: rgb(255 , 255 , 255)&quot;&gt;&lt;th align=&quot;left&quot;&gt;&lt;font color=&quot;#000000&quot;&gt;&lt;span&gt;结构体&lt;/span&gt;&lt;/font&gt;&lt;/th&gt;&lt;th align=&quot;left&quot;&gt;&lt;font color=&quot;#000000&quot;&gt;VOL_BITMAP_INFO&lt;/font&gt;&lt;/th&gt;&lt;th align=&quot;left&quot;&gt;&lt;font color=&quot;#000000&quot;&gt;&lt;br&gt;&lt;/font&gt;&lt;/th&gt;&lt;td&gt;&lt;font color=&quot;#000000&quot;&gt;&lt;br&gt;&lt;/font&gt;&lt;/td&gt;&lt;td&gt;&lt;font color=&quot;#000000&quot;&gt;&lt;br&gt;&lt;/font&gt;&lt;/td&gt;&lt;td&gt;&lt;font color=&quot;#000000&quot;&gt;&lt;br&gt;&lt;/font&gt;&lt;/td&gt;&lt;/tr&gt;&lt;tr&gt;&lt;td&gt;&lt;span&gt;&lt;font color=&quot;#000000&quot;&gt;长度&lt;/font&gt;&lt;/span&gt;&lt;/td&gt;&lt;td style=&quot;border-collapse: collapse&quot;&gt;&lt;font color=&quot;#000000&quot;&gt;64&lt;/font&gt;&lt;/td&gt;&lt;td&gt;&lt;font color=&quot;#000000&quot;&gt;16&lt;/font&gt;&lt;/td&gt;&lt;td&gt;&lt;font color=&quot;#000000&quot;&gt;4&lt;/font&gt;&lt;/td&gt;&lt;td&gt;&lt;font color=&quot;#000000&quot;&gt;4&lt;/font&gt;&lt;/td&gt;&lt;td&gt;&lt;font color=&quot;#000000&quot;&gt;8&lt;/font&gt;&lt;/td&gt;&lt;/tr&gt;&lt;tr&gt;&lt;td&gt;&lt;span&gt;&lt;font color=&quot;#000000&quot;&gt;字段名&lt;/font&gt;&lt;/span&gt;&lt;/td&gt;&lt;td&gt;&lt;font color=&quot;#000000&quot;&gt;disk_name&lt;/font&gt;&lt;/td&gt;&lt;td&gt;&lt;font color=&quot;#000000&quot;&gt;vol_id&lt;/font&gt;&lt;/td&gt;&lt;td&gt;&lt;font color=&quot;#000000&quot;&gt;logical_offset&lt;br&gt;&lt;/font&gt;&lt;/td&gt;&lt;td&gt;&lt;font color=&quot;#000000&quot;&gt;bitmap_size&lt;/font&gt;&lt;/td&gt;&lt;td&gt;&lt;font color=&quot;#000000&quot;&gt;bitmap_count&lt;/font&gt;&lt;/td&gt;&lt;/tr&gt;&lt;tr&gt;&lt;td&gt;&lt;font color=&quot;#000000&quot;&gt;&lt;span&gt;样例值&lt;/span&gt;&lt;/font&gt;&lt;/td&gt;&lt;td&gt;&lt;font color=&quot;#000000&quot;&gt;/dev/sdb&lt;/font&gt;&lt;/td&gt;&lt;td&gt;&lt;font color=&quot;#000000&quot;&gt;xxx&lt;/font&gt;&lt;/td&gt;&lt;td&gt;&lt;font color=&quot;#000000&quot;&gt;0&lt;/font&gt;&lt;/td&gt;&lt;td&gt;&lt;font color=&quot;#000000&quot;&gt;983040&lt;/font&gt;&lt;/td&gt;&lt;td&gt;&lt;font color=&quot;#000000&quot;&gt;17920&lt;/font&gt;&lt;/td&gt;&lt;/tr&gt;&lt;tr&gt;&lt;td&gt;&lt;span&gt;&lt;font color=&quot;#000000&quot;&gt;描述&lt;/font&gt;&lt;/span&gt;&lt;/td&gt;&lt;td&gt;&lt;font color=&quot;#000000&quot;&gt;&lt;span&gt;&lt;br&gt;&lt;/span&gt;&lt;/font&gt;&lt;/td&gt;&lt;td&gt;&lt;font color=&quot;#000000&quot;&gt;&lt;br&gt;&lt;/font&gt;&lt;/td&gt;&lt;td&gt;&lt;font color=&quot;#000000&quot;&gt;累积的bitmap_size大小&lt;br&gt;&lt;/font&gt;&lt;/td&gt;&lt;td&gt;&lt;font color=&quot;#000000&quot;&gt;&lt;br&gt;&lt;/font&gt;&lt;/td&gt;&lt;td&gt;&lt;font color=&quot;#000000&quot;&gt;&lt;br&gt;&lt;/font&gt;&lt;/td&gt;&lt;/tr&gt;&lt;/tbody&gt;&lt;/table&gt;" style="text;html=1;strokeColor=#c0c0c0;fillColor=#ffffff;overflow=fill;rounded=0;" parent="1" vertex="1">
                    <mxGeometry x="50" y="530" width="570" height="162" as="geometry"/>
                </mxCell>
                <mxCell id="18" value="&lt;table border=&quot;1&quot; width=&quot;100%&quot; cellpadding=&quot;4&quot; style=&quot;width: 100% ; height: 100% ; border-collapse: collapse ; border: 1px solid rgb(26 , 26 , 26) ; background-color: rgb(255 , 217 , 102)&quot;&gt;&lt;tbody&gt;&lt;tr style=&quot;color: rgb(255 , 255 , 255)&quot;&gt;&lt;th align=&quot;left&quot;&gt;&lt;font color=&quot;#000000&quot;&gt;&lt;span&gt;结构体&lt;/span&gt;&lt;/font&gt;&lt;/th&gt;&lt;th align=&quot;left&quot;&gt;&lt;font color=&quot;#000000&quot;&gt;Data&lt;/font&gt;&lt;/th&gt;&lt;/tr&gt;&lt;tr&gt;&lt;td&gt;&lt;span&gt;&lt;font color=&quot;#000000&quot;&gt;长度&lt;/font&gt;&lt;/span&gt;&lt;/td&gt;&lt;td style=&quot;border-collapse: collapse&quot;&gt;&lt;font color=&quot;#000000&quot;&gt;bitmapsize&lt;/font&gt;&lt;/td&gt;&lt;/tr&gt;&lt;tr&gt;&lt;td&gt;&lt;span&gt;&lt;font color=&quot;#000000&quot;&gt;字段名&lt;/font&gt;&lt;/span&gt;&lt;/td&gt;&lt;td&gt;&lt;font color=&quot;#000000&quot;&gt;bitmap_size&lt;/font&gt;&lt;/td&gt;&lt;/tr&gt;&lt;tr&gt;&lt;td&gt;&lt;font color=&quot;#000000&quot;&gt;&lt;span&gt;样例值&lt;/span&gt;&lt;/font&gt;&lt;/td&gt;&lt;td&gt;&lt;font color=&quot;#000000&quot;&gt;0/1&lt;/font&gt;&lt;/td&gt;&lt;/tr&gt;&lt;tr&gt;&lt;td&gt;&lt;span&gt;&lt;font color=&quot;#000000&quot;&gt;描述&lt;/font&gt;&lt;/span&gt;&lt;/td&gt;&lt;td&gt;&lt;font color=&quot;#000000&quot;&gt;是否改变&lt;/font&gt;&lt;/td&gt;&lt;/tr&gt;&lt;/tbody&gt;&lt;/table&gt;" style="text;html=1;strokeColor=#c0c0c0;fillColor=#ffffff;overflow=fill;rounded=0;" parent="1" vertex="1">
                    <mxGeometry x="50" y="692" width="140" height="162" as="geometry"/>
                </mxCell>
                <mxCell id="20" value="&lt;table border=&quot;1&quot; width=&quot;100%&quot; cellpadding=&quot;4&quot; style=&quot;width: 100% ; height: 100% ; border-collapse: collapse ; border: 1px solid rgb(26 , 26 , 26) ; background-color: rgb(244 , 176 , 132)&quot;&gt;&lt;tbody&gt;&lt;tr style=&quot;color: rgb(255 , 255 , 255)&quot;&gt;&lt;th align=&quot;left&quot;&gt;&lt;font color=&quot;#000000&quot;&gt;&lt;span&gt;结构体&lt;/span&gt;&lt;/font&gt;&lt;/th&gt;&lt;th align=&quot;left&quot;&gt;&lt;font color=&quot;#000000&quot;&gt;Data&lt;/font&gt;&lt;/th&gt;&lt;/tr&gt;&lt;tr&gt;&lt;td&gt;&lt;span&gt;&lt;font color=&quot;#000000&quot;&gt;长度&lt;/font&gt;&lt;/span&gt;&lt;/td&gt;&lt;td style=&quot;border-collapse: collapse&quot;&gt;&lt;font color=&quot;#000000&quot;&gt;bitmapsize&lt;/font&gt;&lt;/td&gt;&lt;/tr&gt;&lt;tr&gt;&lt;td&gt;&lt;span&gt;&lt;font color=&quot;#000000&quot;&gt;字段名&lt;/font&gt;&lt;/span&gt;&lt;/td&gt;&lt;td&gt;&lt;font color=&quot;#000000&quot;&gt;bitmap_size&lt;/font&gt;&lt;/td&gt;&lt;/tr&gt;&lt;tr&gt;&lt;td&gt;&lt;font color=&quot;#000000&quot;&gt;&lt;span&gt;样例值&lt;/span&gt;&lt;/font&gt;&lt;/td&gt;&lt;td&gt;&lt;font color=&quot;#000000&quot;&gt;0/1&lt;/font&gt;&lt;/td&gt;&lt;/tr&gt;&lt;tr&gt;&lt;td&gt;&lt;span&gt;&lt;font color=&quot;#000000&quot;&gt;描述&lt;/font&gt;&lt;/span&gt;&lt;/td&gt;&lt;td&gt;&lt;font color=&quot;#000000&quot;&gt;是否改变&lt;/font&gt;&lt;/td&gt;&lt;/tr&gt;&lt;/tbody&gt;&lt;/table&gt;" style="text;html=1;strokeColor=#c0c0c0;fillColor=#ffffff;overflow=fill;rounded=0;" parent="1" vertex="1">
                    <mxGeometry x="190" y="692" width="160" height="162" as="geometry"/>
                </mxCell>
            </root>
        </mxGraphModel>
    </diagram>
</mxfile>
